<!--?xml version="1.0" encoding="utf-8"?-->
<!-- Generator: Adobe Illustrator 18.1.1, SVG Export Plug-In . SVG Version: 6.00 Build 0)  -->

<svg version="1.1" id="_x32_" xmlns="http://www.w3.org/2000/svg" xmlns:xlink="http://www.w3.org/1999/xlink" x="0px" y="0px" viewBox="0 0 512 512" style="width: 32px; height: 32px; opacity: 1;" xml:space="preserve">
<style type="text/css">
	.st0{fill:#4B4B4B;}
</style>
<g>
	<path class="st0" d="M132.677,384.62c-0.015,0-0.03,0-0.044,0.008l-7.538,2.535L132.677,384.62z" style="fill: rgb(0, 0, 0);"></path>
	<path class="st0" d="M88.014,315.203v0.008c0,0,0,0,0.008,0L88.014,315.203z" style="fill: rgb(0, 0, 0);"></path>
	<path class="st0" d="M351.85,371.706C578.919,205.404,394.312-95.212,181.768,29.514C125.094,39.102,65.579,74.288,79.753,131.857
		c1.551,6.307,4.392,12.243,8.06,17.768c-3.758,10.334-5.682,20.438-5.696,29.787c0,3.117,0.216,6.136,0.656,9.067
		c1.297,8.56,1.976,15.762,1.976,22.04c0,0.88-0.022,1.73-0.052,2.58c-8.351,2.908-19.744,5.995-28.662,5.1
		c0,0,10.394,8.298,26.149,10.684c-0.596,1.901-1.304,3.765-2.139,5.652c-3.266,7.336-8.575,14.95-16.694,24.24
		c-2.2,2.505-3.9,5.055-5.07,7.71c-1.178,2.654-1.804,5.443-1.79,8.15c-0.014,3.206,0.873,6.166,2.14,8.582
		c1.924,3.653,4.541,6.166,6.927,8.09c2.342,1.872,4.57,3.184,5.987,4.048c0.149,0.097,0.873,1.059,1.342,2.371
		c0.514,1.32,0.82,2.968,0.812,4.25c0.008,0.836-0.119,1.506-0.246,1.879l-0.149,0.358l-0.023,0.03l0.023-0.022v0.007l-0.023,0.016
		l-0.007,0.008c-1.223,1.245-2.326,2.616-3.162,4.272c-0.85,1.641-1.394,3.624-1.386,5.622c-0.008,2.341,0.731,4.474,1.632,6.04
		c1.387,2.386,2.982,3.81,4.37,4.996c0.372,0.313,0.708,0.551,1.051,0.828c-0.112,0.305-0.224,0.634-0.358,0.984
		c-0.298,0.828-0.641,1.76-0.939,2.878c-0.291,1.111-0.574,2.409-0.589,4.078c0,1.402,0.246,3.146,1.103,4.928
		c0.835,1.782,2.32,3.393,3.908,4.384l0.343,0.217l-0.313-0.194c2.013,1.327,2.669,2.326,3.25,3.594
		c0.538,1.268,0.821,3.072,0.806,5.42c0.022,2.871-0.432,6.338-0.455,10.252c0,1.193,0.053,2.431,0.217,3.736l-0.023-0.194
		l0.023,0.208v0.008c0.283,2.267,0.887,4.742,1.99,7.292c1.648,3.802,4.564,7.799,9.037,10.662
		c4.466,2.893,10.244,4.518,17.022,4.503c6.233-0.014,13.383-1.305,21.832-4.138l0.052-0.022c6.703-2.252,12.512-3.206,17.581-3.206
		c7.151,0.03,12.854,1.812,18.03,4.966c3.862,2.371,7.418,5.592,10.699,9.544c4.928,5.927,9.194,13.525,12.854,21.906
		c3.676,8.403,6.756,17.559,9.506,26.588c1.76,5.742,2.468,11.058,2.468,15.979c0,12.071-4.294,22.018-8.716,29.071
		c-2.192,3.497-4.407,6.248-6.017,8.053c-0.812,0.917-1.469,1.596-1.909,2.028l-0.47,0.447l-0.075,0.067l-0.014,0.022l3.101,3.438
		l7.546,8.492c0.38-0.357,5.853-5.249,11.385-14.047c5.518-8.791,11.154-21.652,11.154-37.571c0-6.465-0.939-13.413-3.161-20.661
		c-5.085-16.552-11.318-34.38-21.37-48.793c-5.04-7.188-11.109-13.57-18.618-18.193c-7.494-4.623-16.434-7.352-26.395-7.322
		c-7.068,0-14.629,1.327-22.696,4.049l0.008-0.008c-7.262,2.445-12.795,3.326-16.776,3.31c-2.908,0-4.98-0.432-6.472-1
		c-2.23-0.879-3.318-1.938-4.198-3.206c-0.85-1.26-1.349-2.863-1.521-4.235c-0.052-0.454-0.089-1.044-0.089-1.774
		c-0.022-2.416,0.448-6.024,0.462-10.252c-0.007-3.452-0.343-7.456-2.05-11.58c-1.268-3.116-3.415-6.143-6.338-8.664
		c0.097-0.268,0.194-0.536,0.306-0.843c0.306-0.835,0.641-1.782,0.947-2.907c0.291-1.126,0.567-2.439,0.574-4.101
		c0-1.336-0.209-2.96-0.948-4.645c-0.708-1.671-1.983-3.274-3.46-4.348c-0.708-0.529-1.342-0.999-1.916-1.424
		c1.164-1.574,1.999-3.266,2.543-4.936c0.761-2.326,1.044-4.63,1.051-6.875c-0.014-3.952-0.872-7.724-2.363-11.176
		c-0.76-1.738-1.693-3.378-2.871-4.922c-1.192-1.543-2.647-2.998-4.586-4.176h0.008c-0.947-0.559-1.946-1.17-2.93-1.842
		c-1.476-0.999-2.826-2.177-3.572-3.154c-0.38-0.492-0.611-0.91-0.738-1.23c-0.119-0.328-0.163-0.537-0.163-0.842
		c0-0.328,0.052-0.828,0.432-1.692c0.38-0.865,1.126-2.103,2.468-3.639c8.664-9.916,15.054-18.789,19.275-28.266
		c4.242-9.477,6.114-19.408,6.091-30.518c-0.008-7.411-0.79-15.397-2.154-24.434c-0.321-2.065-0.485-4.302-0.485-6.673
		c0-4.637,0.664-9.812,1.998-15.292c23.04,22.241,56.168,34.887,56.168,34.887l8.5-60.76c0,0,8.246,118.806,55.965,179.088
		c22.898,28.922,47.145,43.753,68.492,51.03c-0.41,2.55-0.641,5.399-0.641,8.605c0.015,13.376,3.877,32.687,16.225,56.04
		c7.895,14.882,18.894,25.948,27.893,33.404c9.014,7.456,16.09,11.288,16.418,11.468l6.36-11.766l1.252-2.297
		c-0.074-0.03-6.375-3.504-14.219-10.036c-7.844-6.538-17.172-16.142-23.569-28.258c-11.288-21.303-14.383-38.25-14.376-48.554
		c0-1.678,0.09-3.146,0.224-4.437C332.24,377.939,351.85,371.706,351.85,371.706z" style="fill: rgb(0, 0, 0);"></path>
</g>
</svg>
