<!--?xml version="1.0" encoding="utf-8"?-->
<!-- Generator: Adobe Illustrator 15.1.0, SVG Export Plug-In . SVG Version: 6.00 Build 0)  -->

<svg version="1.1" id="_x32_" xmlns="http://www.w3.org/2000/svg" xmlns:xlink="http://www.w3.org/1999/xlink" x="0px" y="0px" width="512px" height="512px" viewBox="0 0 512 512" style="width: 32px; height: 32px; opacity: 1;" xml:space="preserve">
<style type="text/css">

	.st0{fill:#4B4B4B;}

</style>
<g>
	<path class="st0" d="M92.758,322.406h326.484c25.641,0,46.438-20.797,46.438-46.422V93.641c0-25.641-20.797-46.422-46.438-46.422
		H92.758c-25.641,0-46.422,20.781-46.422,46.422v182.344C46.336,301.609,67.117,322.406,92.758,322.406z M79.086,93.641
		c0-7.531,6.125-13.672,13.672-13.672h326.484c7.531,0,13.656,6.141,13.656,13.672v177.203c0,7.547-6.125,13.672-13.656,13.672
		H92.758c-7.547,0-13.672-6.125-13.672-13.672V93.641z" style="fill: rgb(0, 0, 0);"></path>
	<path class="st0" d="M507.102,415.891l-42.469-59.609c-3.328-5.078-9.469-8.234-16.141-8.234h-385
		c-6.656,0-12.813,3.156-16.109,8.234L4.898,415.891C-1.68,426-1.633,438.422,5.023,448.5c6.641,10.078,18.891,16.281,32.125,16.281
		h437.703c13.25,0,25.484-6.203,32.125-16.281C513.633,438.422,513.68,426,507.102,415.891z M266.523,433.078h-21.047h-46.078
		l15.938-24.516h30.141h21.047h30.156l15.906,24.516H266.523z" style="fill: rgb(0, 0, 0);"></path>
</g>
</svg>
